<mxfile host="app.diagrams.net" agent="Mozilla/5.0 (Windows NT 10.0; Win64; x64; rv:137.0) Gecko/20100101 Firefox/137.0" version="26.2.7">
  <diagram name="Page-1" id="WZuCPipf8IQ8YPeU5nme">
    <mxGraphModel dx="1428" dy="779" grid="1" gridSize="10" guides="1" tooltips="1" connect="1" arrows="1" fold="1" page="1" pageScale="1" pageWidth="850" pageHeight="1100" math="0" shadow="0">
      <root>
        <mxCell id="0" />
        <mxCell id="1" parent="0" />
        <mxCell id="FfqD-mipQO4yirsWOSt2-11" value="" style="edgeStyle=orthogonalEdgeStyle;rounded=0;orthogonalLoop=1;jettySize=auto;html=1;" parent="1" source="FfqD-mipQO4yirsWOSt2-1" target="FfqD-mipQO4yirsWOSt2-10" edge="1">
          <mxGeometry relative="1" as="geometry" />
        </mxCell>
        <mxCell id="FfqD-mipQO4yirsWOSt2-1" value="&lt;div&gt;Inputs&lt;br&gt;sudokuInput : String&lt;/div&gt;" style="shape=parallelogram;perimeter=parallelogramPerimeter;whiteSpace=wrap;html=1;fixedSize=1;" parent="1" vertex="1">
          <mxGeometry x="320" y="20" width="220" height="50" as="geometry" />
        </mxCell>
        <mxCell id="FfqD-mipQO4yirsWOSt2-13" value="" style="edgeStyle=orthogonalEdgeStyle;rounded=0;orthogonalLoop=1;jettySize=auto;html=1;" parent="1" source="FfqD-mipQO4yirsWOSt2-10" target="FfqD-mipQO4yirsWOSt2-12" edge="1">
          <mxGeometry relative="1" as="geometry" />
        </mxCell>
        <mxCell id="FfqD-mipQO4yirsWOSt2-10" value="&lt;div&gt;calculate dimensions and unique values &lt;br&gt;&lt;/div&gt;&lt;div align=&quot;left&quot;&gt;&lt;ul&gt;&lt;li&gt;size = number of values separated by a space (&quot; &quot;) in sudokuInput&lt;/li&gt;&lt;li&gt;sudokuSideLength =&amp;nbsp; floor of square root of size&lt;/li&gt;&lt;li&gt;subGridSideLength = floor of square root of sudokuSideLength &lt;/li&gt;&lt;li&gt;uniqueValues = 1, 2, ..., sudokuSideLength &lt;br&gt;&lt;/li&gt;&lt;/ul&gt;&lt;/div&gt;" style="whiteSpace=wrap;html=1;" parent="1" vertex="1">
          <mxGeometry x="220" y="90" width="420" height="100" as="geometry" />
        </mxCell>
        <mxCell id="FfqD-mipQO4yirsWOSt2-15" value="" style="edgeStyle=orthogonalEdgeStyle;rounded=0;orthogonalLoop=1;jettySize=auto;html=1;entryX=0.5;entryY=0;entryDx=0;entryDy=0;" parent="1" source="FfqD-mipQO4yirsWOSt2-12" target="FfqD-mipQO4yirsWOSt2-16" edge="1">
          <mxGeometry relative="1" as="geometry">
            <mxPoint x="730" y="980" as="targetPoint" />
          </mxGeometry>
        </mxCell>
        <mxCell id="FfqD-mipQO4yirsWOSt2-19" value="" style="edgeStyle=orthogonalEdgeStyle;rounded=0;orthogonalLoop=1;jettySize=auto;html=1;" parent="1" source="FfqD-mipQO4yirsWOSt2-12" target="FfqD-mipQO4yirsWOSt2-18" edge="1">
          <mxGeometry relative="1" as="geometry" />
        </mxCell>
        <mxCell id="FfqD-mipQO4yirsWOSt2-12" value="&lt;div align=&quot;center&quot;&gt;sudokuSideLength ^ 2 = size&lt;/div&gt;and&lt;div align=&quot;center&quot;&gt;subGridSideLength ^ 2 = sudokuSideLength &lt;br&gt;&lt;/div&gt;&lt;div align=&quot;center&quot;&gt;and &lt;br&gt;&lt;/div&gt;&lt;div align=&quot;center&quot;&gt;subGridSideLength &amp;gt; 0&lt;/div&gt;" style="rhombus;whiteSpace=wrap;html=1;spacingRight=40;spacingLeft=40;spacingTop=0;align=center;" parent="1" vertex="1">
          <mxGeometry x="240" y="220" width="380" height="140" as="geometry" />
        </mxCell>
        <mxCell id="6qzt6zDDq6bS2S-aVFuZ-6" style="edgeStyle=orthogonalEdgeStyle;rounded=0;orthogonalLoop=1;jettySize=auto;html=1;entryX=0.5;entryY=0;entryDx=0;entryDy=0;" edge="1" parent="1" source="FfqD-mipQO4yirsWOSt2-16" target="6qzt6zDDq6bS2S-aVFuZ-5">
          <mxGeometry relative="1" as="geometry" />
        </mxCell>
        <mxCell id="FfqD-mipQO4yirsWOSt2-16" value="return false" style="shape=parallelogram;perimeter=parallelogramPerimeter;whiteSpace=wrap;html=1;fixedSize=1;" parent="1" vertex="1">
          <mxGeometry x="670" y="960" width="120" height="60" as="geometry" />
        </mxCell>
        <mxCell id="FfqD-mipQO4yirsWOSt2-17" value="No" style="text;html=1;align=center;verticalAlign=middle;whiteSpace=wrap;rounded=0;" parent="1" vertex="1">
          <mxGeometry x="600" y="260" width="60" height="30" as="geometry" />
        </mxCell>
        <mxCell id="FfqD-mipQO4yirsWOSt2-22" value="" style="edgeStyle=orthogonalEdgeStyle;rounded=0;orthogonalLoop=1;jettySize=auto;html=1;" parent="1" source="FfqD-mipQO4yirsWOSt2-18" target="FfqD-mipQO4yirsWOSt2-21" edge="1">
          <mxGeometry relative="1" as="geometry" />
        </mxCell>
        <mxCell id="FfqD-mipQO4yirsWOSt2-18" value="&lt;div&gt;uniquValues = 1, 2, ..., dim &lt;/div&gt;&lt;div&gt;Initialize 2D array for each of rows, columns, and subGrids, these will be used to track values as we loop through them&lt;/div&gt;" style="whiteSpace=wrap;html=1;spacingRight=0;spacingLeft=0;" parent="1" vertex="1">
          <mxGeometry x="280" y="400" width="300" height="60" as="geometry" />
        </mxCell>
        <mxCell id="FfqD-mipQO4yirsWOSt2-20" value="Yes" style="text;html=1;align=center;verticalAlign=middle;whiteSpace=wrap;rounded=0;" parent="1" vertex="1">
          <mxGeometry x="420" y="370" width="60" height="30" as="geometry" />
        </mxCell>
        <mxCell id="FfqD-mipQO4yirsWOSt2-26" value="" style="edgeStyle=orthogonalEdgeStyle;rounded=0;orthogonalLoop=1;jettySize=auto;html=1;" parent="1" source="FfqD-mipQO4yirsWOSt2-21" target="FfqD-mipQO4yirsWOSt2-25" edge="1">
          <mxGeometry relative="1" as="geometry" />
        </mxCell>
        <mxCell id="FfqD-mipQO4yirsWOSt2-21" value="&lt;div&gt;loop through all indexed values in sudokuInput as they are saperaated by delimiter&lt;/div&gt;&lt;div&gt;&lt;br&gt;&lt;/div&gt;&lt;div&gt;(index, value)&lt;/div&gt;" style="whiteSpace=wrap;html=1;spacingRight=0;spacingLeft=0;" parent="1" vertex="1">
          <mxGeometry x="290" y="480" width="280" height="80" as="geometry" />
        </mxCell>
        <mxCell id="FfqD-mipQO4yirsWOSt2-43" value="" style="edgeStyle=orthogonalEdgeStyle;rounded=0;orthogonalLoop=1;jettySize=auto;html=1;" parent="1" source="FfqD-mipQO4yirsWOSt2-23" target="FfqD-mipQO4yirsWOSt2-42" edge="1">
          <mxGeometry relative="1" as="geometry" />
        </mxCell>
        <mxCell id="FfqD-mipQO4yirsWOSt2-23" value="&lt;div&gt;rowIndex&amp;nbsp;&amp;nbsp;&amp;nbsp;&amp;nbsp;&amp;nbsp;&amp;nbsp;&amp;nbsp;&amp;nbsp; = index / dim&amp;nbsp;&lt;/div&gt;&lt;div&gt;columnsIndex = index % dim &lt;br&gt;&lt;/div&gt;&lt;div&gt;subGridIndex&amp;nbsp; = subGridSize * (rowIndex / subGridSize) &lt;span style=&quot;white-space: pre;&quot;&gt;&#x9;&lt;/span&gt;&lt;span style=&quot;white-space: pre;&quot;&gt;&#x9;&lt;/span&gt;&lt;span style=&quot;white-space: pre;&quot;&gt;&#x9;&lt;/span&gt;&lt;span style=&quot;white-space: pre;&quot;&gt;&#x9;&lt;/span&gt;+ columnIndex / subGridSize&lt;/div&gt;" style="whiteSpace=wrap;html=1;spacingRight=10;spacingLeft=10;align=left;" parent="1" vertex="1">
          <mxGeometry x="390" y="760" width="320" height="60" as="geometry" />
        </mxCell>
        <mxCell id="fhVHIMc_ddkikwwu0DHq-16" style="edgeStyle=orthogonalEdgeStyle;rounded=0;orthogonalLoop=1;jettySize=auto;html=1;entryX=1;entryY=0.5;entryDx=0;entryDy=0;" parent="1" source="FfqD-mipQO4yirsWOSt2-25" target="FfqD-mipQO4yirsWOSt2-57" edge="1">
          <mxGeometry relative="1" as="geometry">
            <Array as="points">
              <mxPoint x="310" y="830" />
            </Array>
          </mxGeometry>
        </mxCell>
        <mxCell id="fhVHIMc_ddkikwwu0DHq-17" style="edgeStyle=orthogonalEdgeStyle;rounded=0;orthogonalLoop=1;jettySize=auto;html=1;entryX=0;entryY=0.5;entryDx=0;entryDy=0;" parent="1" source="FfqD-mipQO4yirsWOSt2-25" target="FfqD-mipQO4yirsWOSt2-33" edge="1">
          <mxGeometry relative="1" as="geometry" />
        </mxCell>
        <mxCell id="FfqD-mipQO4yirsWOSt2-25" value="value == emptyCell?" style="rhombus;whiteSpace=wrap;html=1;spacingRight=0;spacingLeft=0;" parent="1" vertex="1">
          <mxGeometry x="222" y="660" width="175" height="60" as="geometry" />
        </mxCell>
        <mxCell id="fhVHIMc_ddkikwwu0DHq-8" style="edgeStyle=orthogonalEdgeStyle;rounded=0;orthogonalLoop=1;jettySize=auto;html=1;entryX=0.5;entryY=0;entryDx=0;entryDy=0;" parent="1" source="FfqD-mipQO4yirsWOSt2-33" edge="1" target="FfqD-mipQO4yirsWOSt2-16">
          <mxGeometry relative="1" as="geometry">
            <mxPoint x="730" y="1010" as="targetPoint" />
          </mxGeometry>
        </mxCell>
        <mxCell id="fhVHIMc_ddkikwwu0DHq-10" style="edgeStyle=orthogonalEdgeStyle;rounded=0;orthogonalLoop=1;jettySize=auto;html=1;" parent="1" source="FfqD-mipQO4yirsWOSt2-33" target="FfqD-mipQO4yirsWOSt2-23" edge="1">
          <mxGeometry relative="1" as="geometry">
            <Array as="points">
              <mxPoint x="550" y="780" />
              <mxPoint x="550" y="780" />
            </Array>
          </mxGeometry>
        </mxCell>
        <mxCell id="FfqD-mipQO4yirsWOSt2-33" value="value in uniqueValues ?" style="rhombus;whiteSpace=wrap;html=1;spacingRight=0;spacingLeft=0;" parent="1" vertex="1">
          <mxGeometry x="460" y="660" width="180" height="60" as="geometry" />
        </mxCell>
        <mxCell id="fhVHIMc_ddkikwwu0DHq-21" style="edgeStyle=orthogonalEdgeStyle;rounded=0;orthogonalLoop=1;jettySize=auto;html=1;entryX=1;entryY=0.5;entryDx=0;entryDy=0;" parent="1" source="FfqD-mipQO4yirsWOSt2-35" target="FfqD-mipQO4yirsWOSt2-57" edge="1">
          <mxGeometry relative="1" as="geometry">
            <Array as="points">
              <mxPoint x="250" y="1015" />
              <mxPoint x="250" y="830" />
            </Array>
          </mxGeometry>
        </mxCell>
        <mxCell id="FfqD-mipQO4yirsWOSt2-35" value="&lt;div&gt;add value to &lt;div align=&quot;center&quot;&gt;row[rowIndex],&amp;nbsp;&lt;/div&gt;&lt;div align=&quot;center&quot;&gt;column[columnIndex],&amp;nbsp;&lt;/div&gt;&lt;div align=&quot;center&quot;&gt;and subGrids[subGridIndex]&lt;/div&gt;&lt;/div&gt;" style="whiteSpace=wrap;html=1;spacingRight=0;spacingLeft=0;" parent="1" vertex="1">
          <mxGeometry x="470" y="977" width="160" height="76" as="geometry" />
        </mxCell>
        <mxCell id="FfqD-mipQO4yirsWOSt2-48" style="edgeStyle=orthogonalEdgeStyle;rounded=0;orthogonalLoop=1;jettySize=auto;html=1;entryX=0.5;entryY=0;entryDx=0;entryDy=0;" parent="1" source="FfqD-mipQO4yirsWOSt2-42" target="FfqD-mipQO4yirsWOSt2-16" edge="1">
          <mxGeometry relative="1" as="geometry">
            <Array as="points">
              <mxPoint x="730" y="900" />
            </Array>
          </mxGeometry>
        </mxCell>
        <mxCell id="fhVHIMc_ddkikwwu0DHq-15" style="edgeStyle=orthogonalEdgeStyle;rounded=0;orthogonalLoop=1;jettySize=auto;html=1;entryX=0.5;entryY=0;entryDx=0;entryDy=0;" parent="1" source="FfqD-mipQO4yirsWOSt2-42" target="FfqD-mipQO4yirsWOSt2-35" edge="1">
          <mxGeometry relative="1" as="geometry" />
        </mxCell>
        <mxCell id="FfqD-mipQO4yirsWOSt2-42" value="&lt;div align=&quot;center&quot;&gt;does value exist&amp;nbsp;already in&amp;nbsp;&lt;/div&gt;&lt;div align=&quot;center&quot;&gt;row[rowIndex], column[columnIndex],&amp;nbsp;&lt;/div&gt;&lt;div align=&quot;center&quot;&gt;or subGrids[subGridIndex]?&lt;/div&gt;" style="rhombus;whiteSpace=wrap;html=1;align=center;spacingRight=10;spacingLeft=10;" parent="1" vertex="1">
          <mxGeometry x="420" y="850" width="260" height="100" as="geometry" />
        </mxCell>
        <mxCell id="fhVHIMc_ddkikwwu0DHq-14" style="edgeStyle=orthogonalEdgeStyle;rounded=0;orthogonalLoop=1;jettySize=auto;html=1;entryX=0;entryY=0.5;entryDx=0;entryDy=0;" parent="1" source="FfqD-mipQO4yirsWOSt2-45" target="FfqD-mipQO4yirsWOSt2-25" edge="1">
          <mxGeometry relative="1" as="geometry" />
        </mxCell>
        <mxCell id="FfqD-mipQO4yirsWOSt2-45" value="go to next value and index" style="whiteSpace=wrap;html=1;spacingRight=0;spacingLeft=0;" parent="1" vertex="1">
          <mxGeometry x="50" y="660" width="120" height="60" as="geometry" />
        </mxCell>
        <mxCell id="FfqD-mipQO4yirsWOSt2-49" value="Yes" style="text;html=1;align=center;verticalAlign=middle;whiteSpace=wrap;rounded=0;" parent="1" vertex="1">
          <mxGeometry x="540" y="720" width="60" height="30" as="geometry" />
        </mxCell>
        <mxCell id="FfqD-mipQO4yirsWOSt2-55" value="No" style="text;html=1;align=center;verticalAlign=middle;whiteSpace=wrap;rounded=0;" parent="1" vertex="1">
          <mxGeometry x="540" y="947" width="60" height="30" as="geometry" />
        </mxCell>
        <mxCell id="FfqD-mipQO4yirsWOSt2-56" value="Yes" style="text;html=1;align=center;verticalAlign=middle;whiteSpace=wrap;rounded=0;" parent="1" vertex="1">
          <mxGeometry x="660" y="900" width="60" height="30" as="geometry" />
        </mxCell>
        <mxCell id="fhVHIMc_ddkikwwu0DHq-22" style="edgeStyle=orthogonalEdgeStyle;rounded=0;orthogonalLoop=1;jettySize=auto;html=1;entryX=0.5;entryY=0;entryDx=0;entryDy=0;" parent="1" source="FfqD-mipQO4yirsWOSt2-57" target="FfqD-mipQO4yirsWOSt2-61" edge="1">
          <mxGeometry relative="1" as="geometry" />
        </mxCell>
        <mxCell id="fhVHIMc_ddkikwwu0DHq-23" style="edgeStyle=orthogonalEdgeStyle;rounded=0;orthogonalLoop=1;jettySize=auto;html=1;entryX=0.5;entryY=1;entryDx=0;entryDy=0;" parent="1" source="FfqD-mipQO4yirsWOSt2-57" target="FfqD-mipQO4yirsWOSt2-45" edge="1">
          <mxGeometry relative="1" as="geometry" />
        </mxCell>
        <mxCell id="FfqD-mipQO4yirsWOSt2-57" value="finished the loop" style="rhombus;whiteSpace=wrap;html=1;" parent="1" vertex="1">
          <mxGeometry x="40" y="790" width="140" height="80" as="geometry" />
        </mxCell>
        <mxCell id="FfqD-mipQO4yirsWOSt2-60" value="No" style="text;html=1;align=center;verticalAlign=middle;whiteSpace=wrap;rounded=0;" parent="1" vertex="1">
          <mxGeometry x="95" y="765" width="60" height="30" as="geometry" />
        </mxCell>
        <mxCell id="6qzt6zDDq6bS2S-aVFuZ-4" value="" style="edgeStyle=orthogonalEdgeStyle;rounded=0;orthogonalLoop=1;jettySize=auto;html=1;" edge="1" parent="1" source="FfqD-mipQO4yirsWOSt2-61" target="6qzt6zDDq6bS2S-aVFuZ-3">
          <mxGeometry relative="1" as="geometry" />
        </mxCell>
        <mxCell id="FfqD-mipQO4yirsWOSt2-61" value="return true" style="shape=parallelogram;perimeter=parallelogramPerimeter;whiteSpace=wrap;html=1;fixedSize=1;" parent="1" vertex="1">
          <mxGeometry x="50" y="947" width="120" height="60" as="geometry" />
        </mxCell>
        <mxCell id="FfqD-mipQO4yirsWOSt2-63" value="Yes" style="text;html=1;align=center;verticalAlign=middle;whiteSpace=wrap;rounded=0;" parent="1" vertex="1">
          <mxGeometry x="95" y="870" width="60" height="30" as="geometry" />
        </mxCell>
        <mxCell id="fhVHIMc_ddkikwwu0DHq-9" value="No" style="text;html=1;align=center;verticalAlign=middle;whiteSpace=wrap;rounded=0;" parent="1" vertex="1">
          <mxGeometry x="620" y="660" width="60" height="30" as="geometry" />
        </mxCell>
        <mxCell id="fhVHIMc_ddkikwwu0DHq-18" value="Yes" style="text;html=1;align=center;verticalAlign=middle;whiteSpace=wrap;rounded=0;" parent="1" vertex="1">
          <mxGeometry x="293" y="713" width="60" height="30" as="geometry" />
        </mxCell>
        <mxCell id="fhVHIMc_ddkikwwu0DHq-19" value="No" style="text;html=1;align=center;verticalAlign=middle;whiteSpace=wrap;rounded=0;" parent="1" vertex="1">
          <mxGeometry x="380" y="690" width="60" height="30" as="geometry" />
        </mxCell>
        <mxCell id="6qzt6zDDq6bS2S-aVFuZ-3" value="end" style="shape=parallelogram;perimeter=parallelogramPerimeter;whiteSpace=wrap;html=1;fixedSize=1;" vertex="1" parent="1">
          <mxGeometry x="70" y="1053" width="80" height="26" as="geometry" />
        </mxCell>
        <mxCell id="6qzt6zDDq6bS2S-aVFuZ-5" value="end" style="shape=parallelogram;perimeter=parallelogramPerimeter;whiteSpace=wrap;html=1;fixedSize=1;" vertex="1" parent="1">
          <mxGeometry x="690" y="1053" width="80" height="26" as="geometry" />
        </mxCell>
      </root>
    </mxGraphModel>
  </diagram>
</mxfile>
